<mxfile host="65bd71144e">
    <diagram id="hBYfkIDJyAZiBYt0TRTX" name="Page-1">
        <mxGraphModel dx="220" dy="190" grid="1" gridSize="10" guides="1" tooltips="1" connect="1" arrows="1" fold="1" page="1" pageScale="1" pageWidth="850" pageHeight="1100" math="0" shadow="0">
            <root>
                <mxCell id="0"/>
                <mxCell id="1" parent="0"/>
                <mxCell id="11" style="edgeStyle=orthogonalEdgeStyle;html=1;entryX=0;entryY=0.5;entryDx=0;entryDy=0;rounded=0;" parent="1" source="2" target="3" edge="1">
                    <mxGeometry relative="1" as="geometry">
                        <Array as="points">
                            <mxPoint x="170" y="300"/>
                            <mxPoint x="170" y="160"/>
                        </Array>
                    </mxGeometry>
                </mxCell>
                <mxCell id="12" style="edgeStyle=orthogonalEdgeStyle;html=1;entryX=0;entryY=0.5;entryDx=0;entryDy=0;rounded=0;" parent="1" source="2" target="5" edge="1">
                    <mxGeometry relative="1" as="geometry">
                        <Array as="points">
                            <mxPoint x="170" y="300"/>
                            <mxPoint x="170" y="215"/>
                        </Array>
                    </mxGeometry>
                </mxCell>
                <mxCell id="13" style="edgeStyle=orthogonalEdgeStyle;html=1;entryX=0;entryY=0.5;entryDx=0;entryDy=0;rounded=0;" parent="1" source="2" target="7" edge="1">
                    <mxGeometry relative="1" as="geometry">
                        <Array as="points">
                            <mxPoint x="170" y="300"/>
                            <mxPoint x="170" y="270"/>
                        </Array>
                    </mxGeometry>
                </mxCell>
                <mxCell id="14" style="edgeStyle=orthogonalEdgeStyle;html=1;entryX=0;entryY=0.5;entryDx=0;entryDy=0;rounded=0;" parent="1" source="2" target="8" edge="1">
                    <mxGeometry relative="1" as="geometry">
                        <Array as="points">
                            <mxPoint x="170" y="300"/>
                            <mxPoint x="170" y="333"/>
                        </Array>
                    </mxGeometry>
                </mxCell>
                <mxCell id="15" style="edgeStyle=orthogonalEdgeStyle;html=1;entryX=0;entryY=0.5;entryDx=0;entryDy=0;rounded=0;" parent="1" source="2" target="9" edge="1">
                    <mxGeometry relative="1" as="geometry">
                        <Array as="points">
                            <mxPoint x="170" y="300"/>
                            <mxPoint x="170" y="400"/>
                        </Array>
                    </mxGeometry>
                </mxCell>
                <mxCell id="16" style="edgeStyle=orthogonalEdgeStyle;html=1;entryX=0;entryY=0.5;entryDx=0;entryDy=0;rounded=0;" parent="1" source="2" target="10" edge="1">
                    <mxGeometry relative="1" as="geometry">
                        <Array as="points">
                            <mxPoint x="170" y="300"/>
                            <mxPoint x="170" y="450"/>
                        </Array>
                    </mxGeometry>
                </mxCell>
                <mxCell id="2" value="Utilisateur" style="shape=umlActor;verticalLabelPosition=bottom;verticalAlign=top;html=1;outlineConnect=0;" parent="1" vertex="1">
                    <mxGeometry x="60" y="270" width="30" height="60" as="geometry"/>
                </mxCell>
                <mxCell id="3" value="Connexion OIDC" style="ellipse;whiteSpace=wrap;html=1;" parent="1" vertex="1">
                    <mxGeometry x="245" y="140" width="130" height="40" as="geometry"/>
                </mxCell>
                <mxCell id="27" style="edgeStyle=orthogonalEdgeStyle;rounded=0;html=1;entryX=0;entryY=0.5;entryDx=0;entryDy=0;dashed=1;endArrow=open;endFill=0;" parent="1" source="5" target="18" edge="1">
                    <mxGeometry relative="1" as="geometry">
                        <Array as="points">
                            <mxPoint x="460" y="215"/>
                            <mxPoint x="460" y="335"/>
                        </Array>
                    </mxGeometry>
                </mxCell>
                <mxCell id="5" value="CrÃ©er une signature" style="ellipse;whiteSpace=wrap;html=1;verticalAlign=top;" parent="1" vertex="1">
                    <mxGeometry x="245" y="200" width="130" height="30" as="geometry"/>
                </mxCell>
                <mxCell id="19" style="edgeStyle=orthogonalEdgeStyle;rounded=0;html=1;entryX=0;entryY=0.5;entryDx=0;entryDy=0;dashed=1;endArrow=open;endFill=0;" parent="1" source="7" target="18" edge="1">
                    <mxGeometry relative="1" as="geometry">
                        <Array as="points">
                            <mxPoint x="460" y="270"/>
                            <mxPoint x="460" y="335"/>
                        </Array>
                    </mxGeometry>
                </mxCell>
                <mxCell id="23" value="&amp;lt;&amp;lt;include&amp;gt;&amp;gt;" style="edgeLabel;html=1;align=center;verticalAlign=middle;resizable=0;points=[];" parent="19" vertex="1" connectable="0">
                    <mxGeometry x="-0.5546" relative="1" as="geometry">
                        <mxPoint x="-1" y="-10" as="offset"/>
                    </mxGeometry>
                </mxCell>
                <mxCell id="24" value="&amp;lt;&amp;lt;include&amp;gt;&amp;gt;" style="edgeLabel;html=1;align=center;verticalAlign=middle;resizable=0;points=[];" parent="19" vertex="1" connectable="0">
                    <mxGeometry x="-0.5546" relative="1" as="geometry">
                        <mxPoint x="-1" y="60" as="offset"/>
                    </mxGeometry>
                </mxCell>
                <mxCell id="25" value="&amp;lt;&amp;lt;include&amp;gt;&amp;gt;" style="edgeLabel;html=1;align=center;verticalAlign=middle;resizable=0;points=[];" parent="19" vertex="1" connectable="0">
                    <mxGeometry x="-0.5546" relative="1" as="geometry">
                        <mxPoint x="-1" y="120" as="offset"/>
                    </mxGeometry>
                </mxCell>
                <mxCell id="26" value="&amp;lt;&amp;lt;include&amp;gt;&amp;gt;" style="edgeLabel;html=1;align=center;verticalAlign=middle;resizable=0;points=[];" parent="19" vertex="1" connectable="0">
                    <mxGeometry x="-0.5546" relative="1" as="geometry">
                        <mxPoint x="-1" y="170" as="offset"/>
                    </mxGeometry>
                </mxCell>
                <mxCell id="28" value="&amp;lt;&amp;lt;include&amp;gt;&amp;gt;" style="edgeLabel;html=1;align=center;verticalAlign=middle;resizable=0;points=[];" parent="19" vertex="1" connectable="0">
                    <mxGeometry x="-0.5546" relative="1" as="geometry">
                        <mxPoint x="-1" y="-70" as="offset"/>
                    </mxGeometry>
                </mxCell>
                <mxCell id="31" value="&amp;lt;&amp;lt;include&amp;gt;&amp;gt;" style="edgeLabel;html=1;align=center;verticalAlign=middle;resizable=0;points=[];" parent="19" vertex="1" connectable="0">
                    <mxGeometry x="-0.5546" relative="1" as="geometry">
                        <mxPoint x="193" y="110" as="offset"/>
                    </mxGeometry>
                </mxCell>
                <mxCell id="38" value="&amp;lt;&amp;lt;include&amp;gt;&amp;gt;" style="edgeLabel;html=1;align=center;verticalAlign=middle;resizable=0;points=[];" vertex="1" connectable="0" parent="19">
                    <mxGeometry x="-0.5546" relative="1" as="geometry">
                        <mxPoint x="5" y="230" as="offset"/>
                    </mxGeometry>
                </mxCell>
                <mxCell id="7" value="Supprimer une signature" style="ellipse;whiteSpace=wrap;html=1;verticalAlign=top;" parent="1" vertex="1">
                    <mxGeometry x="245" y="250" width="130" height="40" as="geometry"/>
                </mxCell>
                <mxCell id="20" style="edgeStyle=orthogonalEdgeStyle;rounded=0;html=1;dashed=1;endArrow=none;endFill=0;" parent="1" source="8" edge="1">
                    <mxGeometry relative="1" as="geometry">
                        <Array as="points">
                            <mxPoint x="460" y="337"/>
                            <mxPoint x="460" y="335"/>
                        </Array>
                        <mxPoint x="460" y="337" as="targetPoint"/>
                    </mxGeometry>
                </mxCell>
                <mxCell id="8" value="Modifier&lt;br&gt;une signature" style="ellipse;whiteSpace=wrap;html=1;verticalAlign=top;" parent="1" vertex="1">
                    <mxGeometry x="245" y="310" width="130" height="46" as="geometry"/>
                </mxCell>
                <mxCell id="21" style="edgeStyle=orthogonalEdgeStyle;rounded=0;html=1;dashed=1;endArrow=none;endFill=0;" parent="1" source="9" edge="1">
                    <mxGeometry relative="1" as="geometry">
                        <Array as="points">
                            <mxPoint x="460" y="400"/>
                            <mxPoint x="460" y="335"/>
                        </Array>
                        <mxPoint x="460" y="335" as="targetPoint"/>
                    </mxGeometry>
                </mxCell>
                <mxCell id="9" value="&lt;div&gt;Confirmer la signature&lt;/div&gt;" style="ellipse;whiteSpace=wrap;html=1;" parent="1" vertex="1">
                    <mxGeometry x="230" y="380" width="160" height="40" as="geometry"/>
                </mxCell>
                <mxCell id="22" style="edgeStyle=orthogonalEdgeStyle;rounded=0;html=1;dashed=1;endArrow=none;endFill=0;" parent="1" source="10" edge="1">
                    <mxGeometry relative="1" as="geometry">
                        <Array as="points">
                            <mxPoint x="460" y="450"/>
                            <mxPoint x="460" y="335"/>
                        </Array>
                        <mxPoint x="460" y="335" as="targetPoint"/>
                    </mxGeometry>
                </mxCell>
                <mxCell id="10" value="&lt;div&gt;Annuler la signature&lt;/div&gt;" style="ellipse;whiteSpace=wrap;html=1;" parent="1" vertex="1">
                    <mxGeometry x="230" y="430" width="160" height="40" as="geometry"/>
                </mxCell>
                <mxCell id="30" style="edgeStyle=orthogonalEdgeStyle;rounded=0;html=1;dashed=1;endArrow=open;endFill=0;" parent="1" source="18" target="29" edge="1">
                    <mxGeometry relative="1" as="geometry"/>
                </mxCell>
                <mxCell id="18" value="verification biometrique" style="ellipse;whiteSpace=wrap;html=1;" parent="1" vertex="1">
                    <mxGeometry x="510" y="320" width="155" height="30" as="geometry"/>
                </mxCell>
                <mxCell id="29" value="s'authentifier" style="ellipse;whiteSpace=wrap;html=1;" parent="1" vertex="1">
                    <mxGeometry x="522.5" y="400" width="130" height="30" as="geometry"/>
                </mxCell>
                <mxCell id="32" value="&lt;div&gt;Se dÃ©connecter&lt;/div&gt;" style="ellipse;whiteSpace=wrap;html=1;" vertex="1" parent="1">
                    <mxGeometry x="230" y="490" width="160" height="40" as="geometry"/>
                </mxCell>
                <mxCell id="36" style="edgeStyle=orthogonalEdgeStyle;html=1;entryX=0;entryY=0.5;entryDx=0;entryDy=0;rounded=0;" edge="1" parent="1" target="32">
                    <mxGeometry relative="1" as="geometry">
                        <Array as="points">
                            <mxPoint x="170" y="300"/>
                            <mxPoint x="170" y="510"/>
                        </Array>
                        <mxPoint x="100" y="300" as="sourcePoint"/>
                        <mxPoint x="240.00000000000034" y="460" as="targetPoint"/>
                    </mxGeometry>
                </mxCell>
                <mxCell id="37" style="edgeStyle=orthogonalEdgeStyle;rounded=0;html=1;dashed=1;endArrow=none;endFill=0;exitX=1;exitY=0.5;exitDx=0;exitDy=0;entryX=0;entryY=0.5;entryDx=0;entryDy=0;" edge="1" parent="1" source="32" target="29">
                    <mxGeometry relative="1" as="geometry">
                        <Array as="points">
                            <mxPoint x="470" y="510"/>
                            <mxPoint x="470" y="415"/>
                        </Array>
                        <mxPoint x="470" y="345" as="targetPoint"/>
                        <mxPoint x="400" y="460" as="sourcePoint"/>
                    </mxGeometry>
                </mxCell>
            </root>
        </mxGraphModel>
    </diagram>
</mxfile>